<?xml version="1.0" ?><svg height="32" id="svg5" version="1.1" viewBox="0 0 32 32" width="32" xmlns="http://www.w3.org/2000/svg" xmlns:svg="http://www.w3.org/2000/svg"><defs id="defs2"/><g id="layer1" transform="translate(-348,-100)"><path d="m 362,102 c -6.61557,0 -12,5.38443 -12,12 0,6.61557 5.38443,12 12,12 6.61557,0 12,-5.38443 12,-12 0,-6.61557 -5.38443,-12 -12,-12 z m 0,2 c 5.53469,0 10,4.46531 10,10 0,5.53469 -4.46531,10 -10,10 -5.53469,0 -10,-4.46531 -10,-10 0,-5.53469 4.46531,-10 10,-10 z" id="path7445" style="color:#000000;fill:#002cba;fill-opacity:1;fill-rule:evenodd;stroke-linecap:round;stroke-linejoin:round;stroke-miterlimit:4.1;-inkscape-stroke:none"/><path d="m 370,121 a 1,1 0 0 0 -0.70703,0.29297 1,1 0 0 0 0,1.41406 l 7,7 a 1,1 0 0 0 1.41406,0 1,1 0 0 0 0,-1.41406 l -7,-7 A 1,1 0 0 0 370,121 Z" id="path7447" style="color:#000000;fill:#002cba;fill-opacity:1;fill-rule:evenodd;stroke-linecap:round;stroke-linejoin:round;stroke-miterlimit:4.1;-inkscape-stroke:none"/><path d="m 358,109 a 1,1 0 0 0 -1,1 v 10 a 1.0001,1.0001 0 0 0 1,1 h 7 a 1,1 0 0 0 1,-1 1,1 0 0 0 -1,-1 h -6 v -9 a 1,1 0 0 0 -1,-1 z" id="rect9597" style="color:#000000;fill:#00c89f;fill-opacity:1;fill-rule:evenodd;stroke-linecap:round;stroke-linejoin:round;stroke-miterlimit:4.1;-inkscape-stroke:none"/><path d="m 361,107 a 1.0001,1.0001 0 0 0 -1,1 v 9 a 1.0001,1.0001 0 0 0 1,1 h 6 a 1.0001,1.0001 0 0 0 1,-1 v -9 a 1.0001,1.0001 0 0 0 -1,-1 z m 1,2 h 4 v 7 h -4 z" id="rect9599" style="color:#000000;fill:#00c89f;fill-opacity:1;fill-rule:evenodd;stroke-linecap:round;stroke-linejoin:round;stroke-miterlimit:4.1;-inkscape-stroke:none"/></g></svg>